<svg width="20" height="20" viewBox="0 0 20 20" fill="none" xmlns="http://www.w3.org/2000/svg">
<g clip-path="url(#clip0_1987_17993)">
<path d="M12.8876 0.115509C12.7959 0.018921 12.6702 -0.0390625 12.5399 -0.0390625H4.73789C3.29822 -0.0390625 2.10986 1.14456 2.10986 2.58408V17.3377C2.10986 18.7773 3.29822 19.961 4.73789 19.961H15.3272C16.7669 19.961 17.9552 18.7773 17.9552 17.3377V5.62272C17.9552 5.49714 17.8972 5.37644 17.8152 5.28459L12.8876 0.115509ZM13.0277 1.66626L16.3273 5.13001H14.1823C13.5447 5.13001 13.0277 4.61793 13.0277 3.98026V1.66626ZM15.3272 18.9948H4.73789C3.83457 18.9948 3.07605 18.246 3.07605 17.3377V2.58408C3.07605 1.68076 3.82968 0.927126 4.73789 0.927126H12.0615V3.98026C12.0615 5.15412 13.0085 6.0962 14.1823 6.0962H16.989V17.3377C16.989 18.246 16.2354 18.9948 15.3272 18.9948Z" fill="#696969"/>
<path d="M14.0083 15.6615H6.05658C5.79092 15.6615 5.57349 15.8788 5.57349 16.1446C5.57349 16.4103 5.79092 16.6277 6.05658 16.6277H14.0131C14.2788 16.6277 14.4962 16.4103 14.4962 16.1446C14.4962 15.8788 14.2788 15.6615 14.0083 15.6615Z" fill="#696969"/>
<path d="M9.67956 13.9272C9.77141 14.0238 9.89699 14.0817 10.0322 14.0817C10.1675 14.0817 10.2931 14.0238 10.3848 13.9272L13.2158 10.8885C13.3994 10.6952 13.3849 10.3861 13.1917 10.2074C12.9983 10.0238 12.6892 10.0382 12.5105 10.2315L10.5153 12.3715V7.09625C10.5153 6.83044 10.2978 6.61316 10.0322 6.61316C9.76653 6.61316 9.54909 6.83044 9.54909 7.09625V12.3715L7.55873 10.2315C7.37517 10.0383 7.07076 10.0238 6.87758 10.2074C6.6844 10.3909 6.66991 10.6954 6.85347 10.8885L9.67956 13.9272Z" fill="#696969"/>
</g>
<defs>
<clipPath id="clip0_1987_17993">
<rect width="20" height="20" fill="white"/>
</clipPath>
</defs>
</svg>
